<svg xmlns="http://www.w3.org/2000/svg" viewBox="0 0 34.06 34.06"><defs><style>.cls-1{fill:#95c11f;}</style></defs><g id="Layer_2" data-name="Layer 2"><g id="Layer_1-2" data-name="Layer 1"><path class="cls-1" d="M17,34.06a17,17,0,1,1,17-17A17,17,0,0,1,17,34.06ZM17,3.3A13.73,13.73,0,1,0,30.76,17,13.75,13.75,0,0,0,17,3.3Z"/><path class="cls-1" d="M6,17a10.85,10.85,0,0,1,11-10.92c5,0,8.86,2.65,10.3,7H22.72a6.26,6.26,0,0,0-5.66-3.32c-3.77,0-6.71,3.32-6.71,7.27s2.94,7.3,6.71,7.3a6.25,6.25,0,0,0,6.21-4.68H17.65V15.94H28c.26,7.36-4.49,12-11,12A10.86,10.86,0,0,1,6,17Z"/></g></g></svg>