<svg xmlns="http://www.w3.org/2000/svg" viewBox="0 0 247.2 34.06"><defs><style>.cls-1{fill:#fff;}.cls-2{fill:#95c11f;}</style></defs><g id="Layer_2" data-name="Layer 2"><g id="Layer_1-2" data-name="Layer 1"><path class="cls-1" d="M54.1,16.37v.83c0,4.9-3,8.11-7.32,8.11-4.15,0-7.49-3.71-7.49-8.29s3.34-8.28,7.49-8.28a7.27,7.27,0,0,1,7,5.3h-2a5.41,5.41,0,0,0-5-3.42c-3.13,0-5.67,2.91-5.67,6.4s2.54,6.41,5.67,6.41a5.33,5.33,0,0,0,5.43-5.18H46.89V16.37Z"/><path class="cls-1" d="M69.17,25H67.3A4.7,4.7,0,0,1,67,23.32V21.14c0-1.53-.76-2.38-2.48-2.38H59.61V25H57.77V9.13h6.66A4.53,4.53,0,0,1,69.32,14a4.37,4.37,0,0,1-2.06,3.85,3.64,3.64,0,0,1,1.58,3.34v2A6.38,6.38,0,0,0,69.17,25ZM64.5,16.88a2.75,2.75,0,0,0,3-2.93c0-2.07-1.17-3-3-3H59.61v5.89Z"/><path class="cls-1" d="M74.79,16.17h7.06V18H74.79v2.29c0,1.86.94,2.89,2.68,2.89h5.34V25H77.47C74.73,25,73,23.27,73,20.27V13.9c0-3,1.78-4.77,4.52-4.77h5.34V11H77.47c-1.74,0-2.68,1-2.68,2.91Z"/><path class="cls-1" d="M87.85,16.17H94.9V18H87.85v2.29c0,1.86.93,2.89,2.67,2.89h5.34V25H90.52C87.78,25,86,23.27,86,20.27V13.9c0-3,1.78-4.77,4.52-4.77h5.34V11H90.52c-1.74,0-2.67,1-2.67,2.91Z"/><path class="cls-1" d="M111.82,25h-2l-8.1-12.95V25H99.83V9.13h2.07L110,22.06V9.13h1.82Z"/><path class="cls-2" d="M124.57,25h-1.85V9.13h6.34A4.49,4.49,0,0,1,133.9,14a4.5,4.5,0,0,1-4.84,4.81h-4.49Zm0-14V16.9h4.49a2.69,2.69,0,0,0,3-2.95,2.7,2.7,0,0,0-3-3Z"/><path class="cls-2" d="M125,25.48h-2.73V8.69h6.78A4.94,4.94,0,0,1,134.35,14a4.94,4.94,0,0,1-5.29,5.25h-4Zm-1.84-.89h1V18.32h4.94a4.07,4.07,0,0,0,4.4-4.37,4.06,4.06,0,0,0-4.4-4.37h-5.89Zm5.89-7.25h-4.94V10.55h4.94a3.12,3.12,0,0,1,3.46,3.4A3.12,3.12,0,0,1,129.06,17.34Zm-4-.88h4A2.26,2.26,0,0,0,131.64,14a2.26,2.26,0,0,0-2.58-2.52h-4Z"/><path class="cls-2" d="M138.81,16.17h7.06V18h-7.06v2.29c0,1.86.94,2.89,2.68,2.89h5.34V25h-5.34c-2.74,0-4.52-1.77-4.52-4.77V13.9c0-3,1.78-4.77,4.52-4.77h5.34V11h-5.34c-1.74,0-2.68,1-2.68,2.91Z"/><path class="cls-2" d="M147.27,25.48h-5.79c-3,0-4.95-2-4.95-5.21V13.9c0-3.21,1.9-5.21,4.95-5.21h5.79v2.74h-5.79c-1.47,0-2.22.83-2.22,2.47v1.83h7.05v2.69h-7.05v1.85c0,1.62.75,2.45,2.22,2.45h5.79Zm-5.79-15.9c-2.55,0-4.07,1.61-4.07,4.32v6.37c0,2.71,1.52,4.32,4.07,4.32h4.9v-1h-4.9c-2,0-3.11-1.21-3.11-3.33V17.54h7.06v-.93h-7.06V13.9c0-2.13,1.14-3.35,3.11-3.35h4.9v-1Z"/><path class="cls-2" d="M152.78,20.41,151.17,25h-2l5.69-15.91H157L162.53,25h-2.06l-1.59-4.63Zm3.08-8.89-2.45,7.08h4.86Z"/><path class="cls-2" d="M163.15,25.48h-3l-1.59-4.63h-5.47l-1.6,4.63h-3l6-16.79h2.71Zm-2.37-.89h1.12l-5.27-15h-1.46l-5.37,15h1.06l1.6-4.62h6.74ZM158.89,19h-6.1l3.08-8.89ZM154,18.16h3.62l-1.79-5.28Z"/><path class="cls-1" d="M171.78,9.13h4.73c4.17,0,6.82,3,6.82,7.93s-2.65,8-6.82,8h-4.73ZM173.6,11V23.16h2.91c2.78,0,4.93-1.83,4.93-6.1S179.25,11,176.51,11Z"/><path class="cls-1" d="M188.52,16.17h7.06V18h-7.06v2.29c0,1.86.94,2.89,2.67,2.89h5.35V25h-5.35c-2.73,0-4.51-1.77-4.51-4.77V13.9c0-3,1.78-4.77,4.51-4.77h5.35V11h-5.35c-1.73,0-2.67,1-2.67,2.91Z"/><path class="cls-1" d="M208,11a4.44,4.44,0,0,0-3.12.91c-1,.9-1.57,2.06-1.57,5.11,0,3.35-.63,5.2-2.23,6.63a6.33,6.33,0,0,1-4.39,1.37V23.14a4.62,4.62,0,0,0,3.19-.92c1-.87,1.59-2,1.59-5.16s.61-4.92,1.86-6.23A5.83,5.83,0,0,1,208,9.13Z"/><path class="cls-1" d="M212.93,25h-1.84V9.13h1.84Z"/><path class="cls-1" d="M231.54,16.37v.83c0,4.9-3,8.11-7.32,8.11-4.14,0-7.49-3.71-7.49-8.29s3.35-8.28,7.49-8.28a7.26,7.26,0,0,1,7,5.3h-1.95a5.42,5.42,0,0,0-5-3.42c-3.12,0-5.66,2.91-5.66,6.4s2.54,6.41,5.66,6.41a5.33,5.33,0,0,0,5.43-5.18h-5.32V16.37Z"/><path class="cls-1" d="M247.2,25h-2l-8.1-12.95V25h-1.85V9.13h2.07l8.1,12.93V9.13h1.82Z"/><path class="cls-2" d="M17,34.06a17,17,0,1,1,17-17A17,17,0,0,1,17,34.06ZM17,3.3A13.73,13.73,0,1,0,30.76,17,13.75,13.75,0,0,0,17,3.3Z"/><path class="cls-2" d="M6,17a10.85,10.85,0,0,1,11-10.92c5,0,8.86,2.65,10.3,7H22.72a6.26,6.26,0,0,0-5.66-3.32c-3.77,0-6.71,3.32-6.71,7.27s2.94,7.3,6.71,7.3a6.25,6.25,0,0,0,6.21-4.68H17.65V15.94H28c.26,7.36-4.49,12-11,12A10.86,10.86,0,0,1,6,17Z"/></g></g></svg>